<svg width="40" height="40" viewBox="0 0 40 40" fill="none" xmlns="http://www.w3.org/2000/svg">
<path d="M25 5C25 5 24.6667 7.66667 27 10C29.3333 12.3333 32 12 32 12C32 12 29.3333 11.6667 27 14C24.6667 16.3333 25 19 25 19C25 19 25.3333 16.3333 23 14C20.6667 11.6667 18 12 18 12C18 12 20.6667 12.3333 23 10C25.3333 7.66667 25 5 25 5Z" fill="white"/>
<path d="M34 1C34 1 33.7619 2.90475 35.4286 4.57143C37.0953 6.23809 39 6 39 6C39 6 37.0953 5.76191 35.4286 7.42857C33.7619 9.09525 34 11 34 11C34 11 34.2381 9.09525 32.5714 7.42857C30.9047 5.76191 29 6 29 6C29 6 30.9047 6.23809 32.5714 4.57143C34.2381 2.90475 34 1 34 1Z" fill="white"/>
<path d="M33 14C33 14 32.8096 15.5237 34.1429 16.8571C35.4763 18.1904 37 18 37 18C37 18 35.4763 17.8096 34.1429 19.1429C32.8096 20.4763 33 22 33 22C33 22 33.1904 20.4763 31.8571 19.1429C30.5237 17.8096 29 18 29 18C29 18 30.5237 18.1904 31.8571 16.8571C33.1904 15.5237 33 14 33 14Z" fill="white"/>
<path d="M17.1099 36.8535C16.2317 36.8535 15.3717 36.7759 14.536 36.6271C13.9787 36.5301 13.5549 36.0645 13.4337 35.476L12.6767 31.7835C11.7198 31.3631 10.8235 30.807 10.012 30.1409L6.64472 31.292C6.11179 31.4731 5.51827 31.3114 5.16096 30.8523C4.67041 30.2185 4.22225 29.546 3.82254 28.8346L3.5379 28.3109C3.16846 27.5995 2.84749 26.8623 2.58101 26.0928C2.38722 25.5301 2.55074 24.9029 2.96861 24.5019L5.59095 21.954C5.52432 21.4108 5.48799 20.8611 5.48799 20.305C5.48799 19.7489 5.52432 19.1991 5.59095 18.6624L2.96861 16.1145C2.55074 15.7135 2.38722 15.0863 2.58101 14.5236C2.84749 13.7541 3.16846 13.0169 3.5379 12.3056L3.82254 11.7817C4.22225 11.0704 4.67041 10.3978 5.16096 9.76411C5.51827 9.2985 6.11179 9.1433 6.64472 9.32436L10.018 10.469C10.8296 9.80291 11.7259 9.24676 12.6827 8.82643L13.4397 5.13389C13.5609 4.54541 13.9849 4.0798 14.542 3.9828C15.3777 3.8276 16.2377 3.75 17.1159 3.75M17.1159 25.4784C15.8309 25.4784 14.5986 24.9334 13.69 23.9631C12.7814 22.9929 12.2709 21.677 12.2709 20.305C12.2709 18.9329 12.7814 17.617 13.69 16.6467C14.5986 15.6766 15.8309 15.1315 17.1159 15.1315" stroke="white" stroke-width="2.4"/>
<path fill-rule="evenodd" clip-rule="evenodd" d="M33.625 28.65C32.3438 28.65 31.2421 27.8805 30.7618 26.775H19.25V28.025C19.25 28.025 19.25 28.9416 19.25 29.275C19.25 30.6539 20.3711 31.775 21.75 31.775H22.0118C22.4921 30.6695 23.5938 29.9 24.875 29.9C26.6016 29.9 28 31.2984 28 33.025C28 34.7516 26.6016 36.15 24.875 36.15C23.5938 36.15 22.4921 35.3805 22.0118 34.275H21.75C18.9883 34.275 16.75 32.0367 16.75 29.275V24.275H30.7618C31.2421 23.1695 32.3438 22.4 33.625 22.4C35.3515 22.4 36.75 23.7984 36.75 25.525C36.75 27.2516 35.3515 28.65 33.625 28.65ZM32.9621 26.1879C32.7862 26.0121 32.6875 25.7736 32.6875 25.525C32.6875 25.2764 32.7862 25.0379 32.9621 24.8621C33.1379 24.6862 33.3764 24.5875 33.625 24.5875C33.8736 24.5875 34.1121 24.6862 34.2879 24.8621C34.4638 25.0379 34.5625 25.2764 34.5625 25.525C34.5625 25.7736 34.4638 26.0121 34.2879 26.1879C34.1121 26.3637 33.8736 26.4625 33.625 26.4625C33.3764 26.4625 33.1379 26.3637 32.9621 26.1879ZM25.5379 33.6879C25.3621 33.8637 25.1236 33.9625 24.875 33.9625C24.6264 33.9625 24.3879 33.8637 24.2121 33.6879C24.0362 33.5121 23.9375 33.2736 23.9375 33.025C23.9375 32.7764 24.0362 32.5379 24.2121 32.3621C24.3879 32.1862 24.6264 32.0875 24.875 32.0875C25.1236 32.0875 25.3621 32.1862 25.5379 32.3621C25.7137 32.5379 25.8125 32.7764 25.8125 33.025C25.8125 33.2736 25.7137 33.5121 25.5379 33.6879Z" fill="white"/>
</svg>
