<svg width="70" height="70" viewBox="0 0 70 70" fill="none" xmlns="http://www.w3.org/2000/svg">
<path d="M28.375 18.125V19.125H29.375H40.625H41.625V18.125V15.3125C41.625 14.3091 42.4341 13.5 43.4375 13.5C44.4409 13.5 45.25 14.3091 45.25 15.3125V18.125V19.125H46.25H50.4688C52.2456 19.125 53.6875 20.5669 53.6875 22.3438V25.5625H16.3125V22.3438C16.3125 20.5669 17.7544 19.125 19.5312 19.125H23.75H24.75V18.125V15.3125C24.75 14.3091 25.5591 13.5 26.5625 13.5C27.5659 13.5 28.375 14.3091 28.375 15.3125V18.125ZM16.3125 30.375H53.6875V53.2812C53.6875 55.0581 52.2456 56.5 50.4688 56.5H19.5312C17.7544 56.5 16.3125 55.0581 16.3125 53.2812V30.375ZM19.9375 36.4062V39.2188C19.9375 40.5445 21.018 41.625 22.3438 41.625H25.1562C26.482 41.625 27.5625 40.5445 27.5625 39.2188V36.4062C27.5625 35.0805 26.482 34 25.1562 34H22.3438C21.018 34 19.9375 35.0805 19.9375 36.4062ZM31.1875 36.4062V39.2188C31.1875 40.5445 32.268 41.625 33.5938 41.625H36.4062C37.732 41.625 38.8125 40.5445 38.8125 39.2188V36.4062C38.8125 35.0805 37.732 34 36.4062 34H33.5938C32.268 34 31.1875 35.0805 31.1875 36.4062ZM44.8438 34C43.518 34 42.4375 35.0805 42.4375 36.4062V39.2188C42.4375 40.5445 43.518 41.625 44.8438 41.625H47.6562C48.982 41.625 50.0625 40.5445 50.0625 39.2188V36.4062C50.0625 35.0805 48.982 34 47.6562 34H44.8438ZM19.9375 47.6562V50.4688C19.9375 51.7945 21.018 52.875 22.3438 52.875H25.1562C26.482 52.875 27.5625 51.7945 27.5625 50.4688V47.6562C27.5625 46.3305 26.482 45.25 25.1562 45.25H22.3438C21.018 45.25 19.9375 46.3305 19.9375 47.6562ZM33.5938 45.25C32.268 45.25 31.1875 46.3305 31.1875 47.6562V50.4688C31.1875 51.7945 32.268 52.875 33.5938 52.875H36.4062C37.732 52.875 38.8125 51.7945 38.8125 50.4688V47.6562C38.8125 46.3305 37.732 45.25 36.4062 45.25H33.5938ZM42.4375 47.6562V50.4688C42.4375 51.7945 43.518 52.875 44.8438 52.875H47.6562C48.982 52.875 50.0625 51.7945 50.0625 50.4688V47.6562C50.0625 46.3305 48.982 45.25 47.6562 45.25H44.8438C43.518 45.25 42.4375 46.3305 42.4375 47.6562Z" stroke="black" stroke-width="2"/>
</svg>
