<svg width="70" height="70" viewBox="0 0 70 70" fill="none" xmlns="http://www.w3.org/2000/svg">
<path d="M18.125 25.5625H17.125V26.5625V49.0625V50.0625H18.125H32.1875H33.1875V49.0625V26.5625V25.5625H32.1875H18.125ZM52.875 26.5625V25.5625H51.875H37.8125H36.8125V26.5625V49.0625V50.0625H37.8125H51.875H52.875V49.0625V26.5625ZM13.5 20.9375C13.5 18.3872 15.5747 16.3125 18.125 16.3125H51.875C54.4253 16.3125 56.5 18.3872 56.5 20.9375V49.0625C56.5 51.6128 54.4253 53.6875 51.875 53.6875H18.125C15.5747 53.6875 13.5 51.6128 13.5 49.0625V20.9375Z" stroke="black" stroke-width="2"/>
</svg>
