<svg width="70" height="70" viewBox="0 0 70 70" fill="none" xmlns="http://www.w3.org/2000/svg">
<path d="M51.1018 40.2587H43.4991V40.2509V38.5004H51.1018H53.516L51.8089 36.7932L48.7616 33.746C48.4156 33.3999 48.421 32.8484 48.7578 32.5151C49.1096 32.1671 49.6639 32.1756 49.9924 32.5076L49.9962 32.5114L56.247 38.7622C56.5931 39.1083 56.5876 39.6598 56.2508 39.993L56.247 39.9968L49.9962 46.2477C49.6501 46.5937 49.0986 46.5882 48.7654 46.2515C48.4173 45.8996 48.4258 45.3453 48.7578 45.0169L48.7616 45.0131L51.8089 41.9658L53.516 40.2587H51.1018ZM29.3723 42.2509H41.4991V42.2587V50.0021C41.4991 52.208 39.7043 54.0027 37.4984 54.0027H17.4957C15.2898 54.0027 13.495 52.208 13.495 50.0021V19.998C13.495 17.7921 15.2898 15.9973 17.4957 15.9973H28.9974V24.9986C28.9974 26.9339 30.5624 28.499 32.4977 28.499H41.4991V36.5004H29.3723C27.7808 36.5004 26.497 37.7841 26.497 39.3756C26.497 40.9671 27.7808 42.2509 29.3723 42.2509ZM33.4977 17.4115L40.0848 23.9986H33.4977V17.4115Z" stroke="black" stroke-width="2"/>
</svg>
