<svg width="70" height="70" viewBox="0 0 70 70" fill="none" xmlns="http://www.w3.org/2000/svg">
<path d="M19.125 18.125C19.125 15.5747 21.1997 13.5 23.75 13.5H36.8125V23.75C36.8125 25.8579 38.5171 27.5625 40.625 27.5625H50.875V51.875C50.875 54.4253 48.8003 56.5 46.25 56.5H23.75C21.1997 56.5 19.125 54.4253 19.125 51.875V18.125ZM49.4608 22.75H41.625V14.9142L49.4608 22.75ZM42.0312 34H27.9688C26.643 34 25.5625 35.0805 25.5625 36.4062C25.5625 37.732 26.643 38.8125 27.9688 38.8125H42.0312C43.357 38.8125 44.4375 37.732 44.4375 36.4062C44.4375 35.0805 43.357 34 42.0312 34ZM42.0312 39.625H27.9688C26.643 39.625 25.5625 40.7055 25.5625 42.0312C25.5625 43.357 26.643 44.4375 27.9688 44.4375H42.0312C43.357 44.4375 44.4375 43.357 44.4375 42.0312C44.4375 40.7055 43.357 39.625 42.0312 39.625ZM42.0312 45.25H27.9688C26.643 45.25 25.5625 46.3305 25.5625 47.6562C25.5625 48.982 26.643 50.0625 27.9688 50.0625H42.0312C43.357 50.0625 44.4375 48.982 44.4375 47.6562C44.4375 46.3305 43.357 45.25 42.0312 45.25Z" stroke="black" stroke-width="2"/>
</svg>
