<svg width="70" height="70" viewBox="0 0 70 70" fill="none" xmlns="http://www.w3.org/2000/svg">
<path d="M47.4884 31.1332L25.7654 52.8476L25.7653 52.8477C25.2977 53.3153 24.708 53.6601 24.0681 53.8429L14.9166 56.4563L14.9165 56.4564C14.5245 56.5684 14.1089 56.4613 13.8216 56.174L13.12 56.8756L13.8216 56.174C13.5343 55.8867 13.4272 55.4711 13.5392 55.0791L13.5393 55.079L16.1528 45.9274L16.1535 45.9247C16.3068 45.3823 16.5742 44.8846 16.9354 44.4605L17.1568 44.239L38.8712 22.516L47.4884 31.1332ZM47.4884 31.1332L48.1955 31.8403L26.4724 53.5549M55.1474 23.4657L50.8911 27.7219L42.2744 19.1126L46.53 14.857C48.3393 13.0477 51.27 13.0477 53.0794 14.857L53.3723 15.1499H53.3811L55.1474 16.9162C56.9568 18.7256 56.9568 21.6563 55.1474 23.4657Z" stroke="black" stroke-width="2"/>
</svg>
